<svg width="73" height="24" viewBox="0 0 73 24" fill="none" xmlns="http://www.w3.org/2000/svg">
<path d="M72.4561 4.7592C71.3782 4.82609 70.4362 5.09365 69.6336 5.56522C69.3583 5.7291 69.1029 5.91639 68.8707 6.12709C68.7215 6.26087 68.4893 6.16388 68.4893 5.96321V5.53512C68.4893 5.2408 68.2538 5.00334 67.962 5.00334H63.5773C63.2722 5.00334 63.0234 5.25418 63.0234 5.56187V6.18395C63.0234 6.84281 62.4099 6.83278 62.4099 6.21405V0.451505C62.4099 0.204013 62.2109 0 61.9621 0H57.1231C56.8677 0 56.6621 0.207358 56.6621 0.464883V5.19064C56.6621 5.82943 56.3171 5.64883 56.1281 5.52174C55.3487 5 54.347 4.73913 53.1298 4.73913C51.9126 4.73913 50.8115 5.0301 49.7866 5.61204C48.7617 6.19398 47.9425 7.02676 47.3323 8.11037L47.3124 8.14381C47.0901 8.53846 46.5197 8.48829 46.3605 8.06355C46.2776 7.83947 46.1814 7.62876 46.0719 7.43144C45.5711 6.50836 44.8912 5.82943 44.0255 5.39465C43.1599 4.95987 42.1947 4.74248 41.1268 4.74248C39.9925 4.74248 38.961 5.00669 38.0389 5.53846C37.8399 5.65217 37.6509 5.77926 37.4718 5.91639C37.2529 6.08696 36.9345 5.91639 36.9345 5.6388V5.28094C36.9345 5.12709 36.8084 5 36.6559 5H31.8633C31.6444 5 31.4686 5.17726 31.4686 5.39799V8.39465C31.4686 8.7291 31.0242 8.85284 30.865 8.56187C30.802 8.44816 30.7389 8.33779 30.6693 8.22742C29.9827 7.13378 29.0308 6.27759 27.8103 5.66221C26.5898 5.04682 25.1901 4.73913 23.6147 4.73913C22.0393 4.73913 20.643 5.04682 19.4324 5.66221C18.2218 6.27759 17.2666 7.13378 16.5734 8.22742C16.4341 8.44816 16.3081 8.67558 16.1953 8.9097C16.0361 9.24415 15.5618 9.20736 15.4225 8.86288C15.3197 8.61204 15.2036 8.37124 15.0743 8.13712C14.464 7.05351 13.6514 6.21405 12.6332 5.62542C11.615 5.03679 10.4973 4.74248 9.27674 4.74248C8.0562 4.74248 6.9816 5 6.20218 5.51171C6.08941 5.58528 5.97996 5.66555 5.87715 5.75251C5.71131 5.88963 5.46588 5.76923 5.46588 5.55518V5.4214C5.46588 5.19064 5.28015 5 5.04798 5H0.603635C0.271967 5 0 5.2709 0 5.6087V23.4716C0 23.7625 0.235484 24 0.524035 24H5.25361C5.52558 24 5.7478 23.7759 5.7478 23.5017V18.6254C5.7478 18.1973 6.09936 18.3712 6.29505 18.5017C7.08442 19.0234 8.07942 19.2843 9.28337 19.2843C10.4873 19.2843 11.6216 18.9933 12.6398 18.4114C13.6581 17.8294 14.4706 16.9967 15.0809 15.913C15.2103 15.6823 15.3264 15.4381 15.4292 15.1873C15.5718 14.8328 16.0593 14.796 16.2252 15.1405C16.3313 15.3579 16.4474 15.5686 16.5801 15.7726C17.2732 16.8662 18.2284 17.7258 19.439 18.3478C20.6496 18.9732 22.0459 19.2843 23.6214 19.2843C25.1968 19.2843 26.5964 18.9732 27.8169 18.3478C29.0375 17.7258 29.9894 16.8662 30.6759 15.7726C30.7555 15.6455 30.8318 15.5151 30.9048 15.3813C31.0573 15.097 31.4786 15.1973 31.4786 15.5184V18.6555C31.4786 18.8629 31.6444 19.0301 31.85 19.0301H36.8483C37.0572 19.0301 37.2264 18.8595 37.2264 18.6488V12.4415C37.2264 11.7425 37.3225 11.1839 37.5182 10.7759C37.7139 10.3645 37.9759 10.0702 38.3076 9.89298C38.6393 9.71237 38.9975 9.62542 39.3888 9.62542C39.9129 9.62542 40.3308 9.80936 40.6359 10.1773C40.941 10.5452 41.0936 11.1639 41.0936 12.0368V18.6187C41.0936 18.8495 41.2793 19.0368 41.5082 19.0368H46.4699C46.6756 19.0368 46.8414 18.8696 46.8414 18.6622V15.8528C46.8414 15.3846 47.1432 15.5318 47.3488 15.8963C47.9591 16.9833 48.775 17.8194 49.8032 18.408C50.828 18.9967 51.9424 19.291 53.1464 19.291C54.4333 19.291 55.4647 19.0334 56.2342 18.5217C56.3735 18.4314 56.5029 18.3278 56.6256 18.2174C56.7549 18.1037 56.9572 18.1873 56.9572 18.3612V18.6555C56.9572 18.8629 57.1231 19.0334 57.332 19.0334H61.9853C62.2274 19.0334 62.4231 18.8361 62.4231 18.592V17.8562C62.4231 17.1137 63.0367 17.1605 63.0367 17.8562V18.6221C63.0367 18.8495 63.2191 19.0334 63.4447 19.0334H68.0847C68.4694 19.0334 68.7812 18.7191 68.7812 18.3311V12.8027C68.7812 11.6923 69.0565 10.9097 69.607 10.4582C70.1576 10.0067 70.8641 9.77926 71.7297 9.77926C71.932 9.77926 72.131 9.7893 72.3267 9.80602C72.3931 9.81271 72.4594 9.8194 72.5323 9.82609C72.7811 9.85284 73 9.65886 73 9.40468V5.26087C73 4.9699 72.7546 4.74247 72.466 4.7592H72.4561ZM9.86379 13.5351C9.66147 13.9465 9.38951 14.2542 9.0512 14.4582C8.7129 14.6622 8.33149 14.7659 7.90695 14.7659C7.48242 14.7659 7.101 14.6622 6.7627 14.4582C6.4244 14.2542 6.15243 13.9465 5.95011 13.5351C5.7478 13.1237 5.64498 12.6221 5.64498 12.0234C5.64498 11.4247 5.7478 10.8963 5.95011 10.485C6.15243 10.0736 6.4244 9.76589 6.7627 9.56187C7.101 9.35786 7.48242 9.25418 7.90695 9.25418C8.33149 9.25418 8.7129 9.35786 9.0512 9.56187C9.38951 9.76589 9.66147 10.0736 9.86379 10.485C10.0661 10.8963 10.1689 11.408 10.1689 12.0234C10.1689 12.6388 10.0661 13.1271 9.86379 13.5351ZM25.5749 13.5217C25.3726 13.9398 25.1006 14.2508 24.7623 14.4582C24.424 14.6622 24.0426 14.7659 23.618 14.7659C23.1935 14.7659 22.8121 14.6622 22.4738 14.4582C22.1355 14.2542 21.8635 13.9431 21.6612 13.5217C21.4589 13.1037 21.3561 12.5953 21.3561 11.9967C21.3561 11.398 21.4589 10.8729 21.6612 10.4716C21.8635 10.0702 22.1355 9.76589 22.4738 9.56187C22.8121 9.35786 23.1935 9.25418 23.618 9.25418C24.0426 9.25418 24.424 9.35786 24.7623 9.56187C25.1006 9.76589 25.3726 10.0702 25.5749 10.4716C25.7772 10.8729 25.88 11.3813 25.88 11.9967C25.88 12.612 25.7772 13.1037 25.5749 13.5217ZM56.4631 13.5217C56.2607 13.9398 55.9888 14.2508 55.6505 14.4582C55.3122 14.6622 54.9308 14.7659 54.5062 14.7659C54.0817 14.7659 53.7003 14.6622 53.362 14.4582C53.0237 14.2542 52.7517 13.9431 52.5494 13.5217C52.3471 13.1037 52.2443 12.5953 52.2443 11.9967C52.2443 11.398 52.3471 10.8729 52.5494 10.4716C52.7517 10.0702 53.0237 9.76589 53.362 9.56187C53.7003 9.35786 54.0817 9.25418 54.5062 9.25418C54.9308 9.25418 55.3122 9.35786 55.6505 9.56187C55.9888 9.76589 56.2607 10.0702 56.4631 10.4716C56.6654 10.8729 56.7682 11.3813 56.7682 11.9967C56.7682 12.612 56.6654 13.1037 56.4631 13.5217Z" fill="#7A5AF8"/>
</svg>
